<svg xmlns="http://www.w3.org/2000/svg" width="960" height="540" viewBox="0 0 960 540" role="img" aria-label="Ilustración tecnológica abstracta">
  <defs>
    <linearGradient id="g1" x1="0" x2="1" y1="0" y2="1">
      <stop offset="0" stop-color="#7c5cff"/>
      <stop offset="1" stop-color="#22d3ee"/>
    </linearGradient>
    <radialGradient id="g2" cx="30%" cy="20%" r="80%">
      <stop offset="0" stop-color="#7c5cff" stop-opacity="0.55"/>
      <stop offset="1" stop-color="#0b1220" stop-opacity="0"/>
    </radialGradient>
  </defs>
  <rect width="960" height="540" fill="#0b1220"/>
  <rect width="960" height="540" fill="url(#g2)"/>
  <g opacity="0.9">
    <circle cx="730" cy="140" r="86" fill="url(#g1)" opacity="0.25"/>
    <circle cx="780" cy="165" r="22" fill="#22d3ee" opacity="0.6"/>
    <circle cx="695" cy="205" r="14" fill="#7c5cff" opacity="0.75"/>
  </g>
  <g fill="none" stroke="rgba(255,255,255,0.18)" stroke-width="2">
    <path d="M110 360 C 210 280, 300 420, 400 340 S 600 300, 740 360 S 880 430, 940 360"/>
    <path d="M70 310 C 190 240, 320 360, 420 300 S 640 250, 790 310 S 910 370, 960 310"/>
  </g>
  <g>
    <rect x="90" y="110" rx="18" ry="18" width="420" height="270" fill="rgba(255,255,255,0.04)" stroke="rgba(255,255,255,0.14)"/>
    <rect x="120" y="150" rx="12" ry="12" width="360" height="36" fill="rgba(255,255,255,0.06)"/>
    <rect x="120" y="206" rx="12" ry="12" width="260" height="18" fill="rgba(255,255,255,0.06)"/>
    <rect x="120" y="232" rx="12" ry="12" width="320" height="18" fill="rgba(255,255,255,0.06)"/>
    <rect x="120" y="270" rx="14" ry="14" width="170" height="44" fill="url(#g1)" opacity="0.9"/>
    <rect x="302" y="270" rx="14" ry="14" width="150" height="44" fill="rgba(255,255,255,0.06)" stroke="rgba(255,255,255,0.12)"/>
  </g>
  <g opacity="0.9">
    <path d="M575 375 L690 255 L815 375 Z" fill="rgba(255,255,255,0.05)" stroke="rgba(255,255,255,0.16)"/>
    <path d="M690 255 L736 302 L690 349 L644 302 Z" fill="url(#g1)" opacity="0.85"/>
  </g>
</svg>

